<svg xmlns="http://www.w3.org/2000/svg" xmlns:xlink="http://www.w3.org/1999/xlink" width="370"
  zoomAndPan="magnify" viewBox="0 0 277.5 116.249996" height="155"
  preserveAspectRatio="xMidYMid meet" version="1.0">
  <defs>
    <g />
    <clipPath id="08b7882f39">
      <path d="M 207.464844 35 L 235 35 L 235 62.96875 L 207.464844 62.96875 Z M 207.464844 35 "
        clip-rule="nonzero" />
    </clipPath>
    <clipPath id="361a98679d">
      <path
        d="M 207.464844 11.550781 L 244.726562 11.550781 L 244.726562 38 L 207.464844 38 Z M 207.464844 11.550781 "
        clip-rule="nonzero" />
    </clipPath>
    <clipPath id="c5173f8b89">
      <path d="M 36 36 L 64.089844 36 L 64.089844 63.773438 L 36 63.773438 Z M 36 36 "
        clip-rule="nonzero" />
    </clipPath>
    <clipPath id="d5e6271126">
      <path d="M 27 12.355469 L 64 12.355469 L 64 38 L 27 38 Z M 27 12.355469 " clip-rule="nonzero" />
    </clipPath>
  </defs>
  <g fill="#000000" fill-opacity="0.4">
    <g transform="translate(25.630255, 99.857117)">
      <g>
        <path
          d="M 12.03125 0 L -1.0625 -31.1875 L 6.953125 -31.1875 L 14.828125 -10.703125 L 22.6875 -31.1875 L 30.703125 -31.1875 L 17.625 0 Z M 12.03125 0 " />
      </g>
    </g>
  </g>
  <g fill="#000000" fill-opacity="0.4">
    <g transform="translate(55.469084, 99.857117)">
      <g>
        <path
          d="M 18.109375 -31.1875 L 30.703125 0 L 23.0625 0 L 20.765625 -6.234375 L 8.890625 -6.234375 L 6.578125 0 L -1.0625 0 L 11.53125 -31.1875 Z M 18.34375 -12.484375 L 14.859375 -21.546875 L 14.78125 -21.546875 L 11.3125 -12.484375 Z M 18.34375 -12.484375 " />
      </g>
    </g>
  </g>
  <g fill="#000000" fill-opacity="0.4">
    <g transform="translate(85.307913, 99.857117)">
      <g>
        <path
          d="M 2.265625 -31.1875 L 13.65625 -31.1875 C 16.832031 -31.1875 19.398438 -30.367188 21.359375 -28.734375 C 23.328125 -27.097656 24.3125 -24.71875 24.3125 -21.59375 C 24.3125 -18.46875 23.316406 -16.015625 21.328125 -14.234375 C 19.335938 -12.460938 16.78125 -11.578125 13.65625 -11.578125 L 9.375 -11.578125 L 9.375 0 L 2.265625 0 Z M 9.375 -17.25 L 11.375 -17.25 C 12.96875 -17.25 14.273438 -17.566406 15.296875 -18.203125 C 16.316406 -18.847656 16.828125 -19.898438 16.828125 -21.359375 C 16.828125 -22.847656 16.316406 -23.910156 15.296875 -24.546875 C 14.273438 -25.191406 12.96875 -25.515625 11.375 -25.515625 L 9.375 -25.515625 Z M 9.375 -17.25 " />
      </g>
    </g>
  </g>
  <g fill="#000000" fill-opacity="0.4">
    <g transform="translate(110.684161, 99.857117)">
      <g>
        <path
          d="M 20.109375 -31.1875 L 20.109375 -24.953125 L 9.375 -24.953125 L 9.375 -18.75 L 19.65625 -18.75 L 19.65625 -12.515625 L 9.375 -12.515625 L 9.375 -6.234375 L 20.109375 -6.234375 L 20.109375 0 L 2.265625 0 L 2.265625 -31.1875 Z M 20.109375 -31.1875 " />
      </g>
    </g>
  </g>
  <g fill="#000000" fill-opacity="1">
    <g transform="translate(23.958732, 98.185592)">
      <g>
        <path
          d="M 12.03125 0 L -1.0625 -31.1875 L 6.953125 -31.1875 L 14.828125 -10.703125 L 22.6875 -31.1875 L 30.703125 -31.1875 L 17.625 0 Z M 12.03125 0 " />
      </g>
    </g>
  </g>
  <g fill="#000000" fill-opacity="1">
    <g transform="translate(53.797561, 98.185592)">
      <g>
        <path
          d="M 18.109375 -31.1875 L 30.703125 0 L 23.0625 0 L 20.765625 -6.234375 L 8.890625 -6.234375 L 6.578125 0 L -1.0625 0 L 11.53125 -31.1875 Z M 18.34375 -12.484375 L 14.859375 -21.546875 L 14.78125 -21.546875 L 11.3125 -12.484375 Z M 18.34375 -12.484375 " />
      </g>
    </g>
  </g>
  <g fill="#000000" fill-opacity="1">
    <g transform="translate(83.63639, 98.185592)">
      <g>
        <path
          d="M 2.265625 -31.1875 L 13.65625 -31.1875 C 16.832031 -31.1875 19.398438 -30.367188 21.359375 -28.734375 C 23.328125 -27.097656 24.3125 -24.71875 24.3125 -21.59375 C 24.3125 -18.46875 23.316406 -16.015625 21.328125 -14.234375 C 19.335938 -12.460938 16.78125 -11.578125 13.65625 -11.578125 L 9.375 -11.578125 L 9.375 0 L 2.265625 0 Z M 9.375 -17.25 L 11.375 -17.25 C 12.96875 -17.25 14.273438 -17.566406 15.296875 -18.203125 C 16.316406 -18.847656 16.828125 -19.898438 16.828125 -21.359375 C 16.828125 -22.847656 16.316406 -23.910156 15.296875 -24.546875 C 14.273438 -25.191406 12.96875 -25.515625 11.375 -25.515625 L 9.375 -25.515625 Z M 9.375 -17.25 " />
      </g>
    </g>
  </g>
  <g fill="#000000" fill-opacity="1">
    <g transform="translate(109.012638, 98.185592)">
      <g>
        <path
          d="M 20.109375 -31.1875 L 20.109375 -24.953125 L 9.375 -24.953125 L 9.375 -18.75 L 19.65625 -18.75 L 19.65625 -12.515625 L 9.375 -12.515625 L 9.375 -6.234375 L 20.109375 -6.234375 L 20.109375 0 L 2.265625 0 L 2.265625 -31.1875 Z M 20.109375 -31.1875 " />
      </g>
    </g>
  </g>
  <g fill="#000000" fill-opacity="0.4">
    <g transform="translate(132.80986, 99.857117)">
      <g />
    </g>
  </g>
  <g fill="#000000" fill-opacity="0.4">
    <g transform="translate(143.323424, 99.857117)">
      <g />
    </g>
  </g>
  <g fill="#000000" fill-opacity="1">
    <g transform="translate(131.138337, 98.185592)">
      <g />
    </g>
  </g>
  <g fill="#000000" fill-opacity="1">
    <g transform="translate(141.651901, 98.185592)">
      <g />
    </g>
  </g>
  <g fill="#000000" fill-opacity="0.4">
    <g transform="translate(153.838257, 99.857117)">
      <g>
        <path
          d="M 9.375 -31.1875 L 9.375 -6.234375 L 20.109375 -6.234375 L 20.109375 0 L 2.265625 0 L 2.265625 -31.1875 Z M 9.375 -31.1875 " />
      </g>
    </g>
  </g>
  <g fill="#000000" fill-opacity="0.4">
    <g transform="translate(175.394838, 99.857117)">
      <g>
        <path
          d="M 9.375 -12.515625 L 9.375 0 L 2.265625 0 L 2.265625 -31.1875 L 9.375 -31.1875 L 9.375 -18.75 L 19.4375 -18.75 L 19.4375 -31.1875 L 26.546875 -31.1875 L 26.546875 0 L 19.4375 0 L 19.4375 -12.515625 Z M 9.375 -12.515625 " />
      </g>
    </g>
  </g>
  <g fill="#000000" fill-opacity="0.4">
    <g transform="translate(204.401659, 99.857117)">
      <g>
        <path
          d="M 18.109375 -31.1875 L 30.703125 0 L 23.0625 0 L 20.765625 -6.234375 L 8.890625 -6.234375 L 6.578125 0 L -1.0625 0 L 11.53125 -31.1875 Z M 18.34375 -12.484375 L 14.859375 -21.546875 L 14.78125 -21.546875 L 11.3125 -12.484375 Z M 18.34375 -12.484375 " />
      </g>
    </g>
  </g>
  <g fill="#000000" fill-opacity="0.4">
    <g transform="translate(234.240487, 99.857117)">
      <g>
        <path
          d="M 15.84375 -31.1875 L 15.84375 -8.8125 C 15.84375 -5.757812 15.003906 -3.429688 13.328125 -1.828125 C 11.648438 -0.234375 9.25 0.5625 6.125 0.5625 C 5.289062 0.5625 4.46875 0.460938 3.65625 0.265625 C 2.851562 0.0664062 2.175781 -0.175781 1.625 -0.46875 C 1.070312 -0.757812 0.570312 -1.054688 0.125 -1.359375 C -0.3125 -1.660156 -0.628906 -1.914062 -0.828125 -2.125 L -1.171875 -2.421875 L 1.09375 -8.359375 C 2.582031 -6.941406 3.929688 -6.234375 5.140625 -6.234375 C 6.222656 -6.234375 7.09375 -6.59375 7.75 -7.3125 C 8.40625 -8.03125 8.734375 -9.132812 8.734375 -10.625 L 8.734375 -31.1875 Z M 15.84375 -31.1875 " />
      </g>
    </g>
  </g>
  <g fill="#000000" fill-opacity="1">
    <g transform="translate(152.166734, 98.185592)">
      <g>
        <path
          d="M 9.375 -31.1875 L 9.375 -6.234375 L 20.109375 -6.234375 L 20.109375 0 L 2.265625 0 L 2.265625 -31.1875 Z M 9.375 -31.1875 " />
      </g>
    </g>
  </g>
  <g fill="#000000" fill-opacity="1">
    <g transform="translate(173.723315, 98.185592)">
      <g>
        <path
          d="M 9.375 -12.515625 L 9.375 0 L 2.265625 0 L 2.265625 -31.1875 L 9.375 -31.1875 L 9.375 -18.75 L 19.4375 -18.75 L 19.4375 -31.1875 L 26.546875 -31.1875 L 26.546875 0 L 19.4375 0 L 19.4375 -12.515625 Z M 9.375 -12.515625 " />
      </g>
    </g>
  </g>
  <g fill="#000000" fill-opacity="1">
    <g transform="translate(202.730136, 98.185592)">
      <g>
        <path
          d="M 18.109375 -31.1875 L 30.703125 0 L 23.0625 0 L 20.765625 -6.234375 L 8.890625 -6.234375 L 6.578125 0 L -1.0625 0 L 11.53125 -31.1875 Z M 18.34375 -12.484375 L 14.859375 -21.546875 L 14.78125 -21.546875 L 11.3125 -12.484375 Z M 18.34375 -12.484375 " />
      </g>
    </g>
  </g>
  <g fill="#000000" fill-opacity="1">
    <g transform="translate(232.568964, 98.185592)">
      <g>
        <path
          d="M 15.84375 -31.1875 L 15.84375 -8.8125 C 15.84375 -5.757812 15.003906 -3.429688 13.328125 -1.828125 C 11.648438 -0.234375 9.25 0.5625 6.125 0.5625 C 5.289062 0.5625 4.46875 0.460938 3.65625 0.265625 C 2.851562 0.0664062 2.175781 -0.175781 1.625 -0.46875 C 1.070312 -0.757812 0.570312 -1.054688 0.125 -1.359375 C -0.3125 -1.660156 -0.628906 -1.914062 -0.828125 -2.125 L -1.171875 -2.421875 L 1.09375 -8.359375 C 2.582031 -6.941406 3.929688 -6.234375 5.140625 -6.234375 C 6.222656 -6.234375 7.09375 -6.59375 7.75 -7.3125 C 8.40625 -8.03125 8.734375 -9.132812 8.734375 -10.625 L 8.734375 -31.1875 Z M 15.84375 -31.1875 " />
      </g>
    </g>
  </g>
  <g fill="#a57b0a" fill-opacity="1">
    <g transform="translate(87.389311, 55.188237)">
      <g>
        <path
          d="M 0.96875 -13.375 L 4.84375 -13.375 C 6.695312 -13.375 8.28125 -12.738281 9.59375 -11.46875 C 10.914062 -10.195312 11.578125 -8.601562 11.578125 -6.6875 C 11.578125 -4.769531 10.921875 -3.175781 9.609375 -1.90625 C 8.296875 -0.632812 6.707031 0 4.84375 0 L 0.96875 0 Z M 4.015625 -2.71875 L 4.484375 -2.71875 C 5.597656 -2.71875 6.507812 -3.09375 7.21875 -3.84375 C 7.925781 -4.59375 8.285156 -5.535156 8.296875 -6.671875 C 8.296875 -7.804688 7.941406 -8.75 7.234375 -9.5 C 6.523438 -10.257812 5.609375 -10.640625 4.484375 -10.640625 L 4.015625 -10.640625 Z M 4.015625 -2.71875 " />
      </g>
    </g>
  </g>
  <g fill="#a57b0a" fill-opacity="1">
    <g transform="translate(99.423236, 55.188237)">
      <g>
        <path
          d="M 1.25 -12.9375 C 1.582031 -13.28125 1.976562 -13.453125 2.4375 -13.453125 C 2.90625 -13.453125 3.304688 -13.28125 3.640625 -12.9375 C 3.972656 -12.601562 4.140625 -12.203125 4.140625 -11.734375 C 4.140625 -11.273438 3.972656 -10.878906 3.640625 -10.546875 C 3.304688 -10.210938 2.90625 -10.046875 2.4375 -10.046875 C 1.976562 -10.046875 1.582031 -10.210938 1.25 -10.546875 C 0.914062 -10.878906 0.75 -11.273438 0.75 -11.734375 C 0.75 -12.203125 0.914062 -12.601562 1.25 -12.9375 Z M 0.96875 -8.3125 L 0.96875 0 L 3.84375 0 L 3.84375 -8.3125 Z M 0.96875 -8.3125 " />
      </g>
    </g>
  </g>
  <g fill="#a57b0a" fill-opacity="1">
    <g transform="translate(104.39555, 55.188237)">
      <g>
        <path
          d="M 7.28125 -8.3125 L 10.578125 -8.3125 L 4.046875 4.21875 L 0.75 4.21875 L 3.609375 -1.296875 L -0.328125 -8.3125 L 2.984375 -8.3125 L 5.296875 -4.046875 Z M 7.28125 -8.3125 " />
      </g>
    </g>
  </g>
  <g fill="#a57b0a" fill-opacity="1">
    <g transform="translate(114.728859, 55.188237)">
      <g />
    </g>
  </g>
  <g fill="#a57b0a" fill-opacity="1">
    <g transform="translate(119.231484, 55.188237)">
      <g>
        <path
          d="M 8.703125 -13.375 L 8.703125 -10.6875 L 4.015625 -10.6875 L 4.015625 -8.03125 L 8.34375 -8.03125 L 8.34375 -5.359375 L 4.015625 -5.359375 L 4.015625 0 L 0.96875 0 L 0.96875 -13.375 Z M 8.703125 -13.375 " />
      </g>
    </g>
  </g>
  <g fill="#a57b0a" fill-opacity="1">
    <g transform="translate(128.49583, 55.188237)">
      <g>
        <path
          d="M 1.75 -0.984375 C 0.832031 -1.804688 0.375 -2.859375 0.375 -4.140625 C 0.375 -5.429688 0.851562 -6.488281 1.8125 -7.3125 C 2.769531 -8.144531 3.957031 -8.5625 5.375 -8.5625 C 6.769531 -8.5625 7.945312 -8.144531 8.90625 -7.3125 C 9.863281 -6.476562 10.34375 -5.421875 10.34375 -4.140625 C 10.34375 -2.867188 9.875 -1.816406 8.9375 -0.984375 C 8 -0.160156 6.8125 0.25 5.375 0.25 C 3.882812 0.25 2.675781 -0.160156 1.75 -0.984375 Z M 3.96875 -5.546875 C 3.601562 -5.179688 3.421875 -4.710938 3.421875 -4.140625 C 3.421875 -3.578125 3.597656 -3.113281 3.953125 -2.75 C 4.304688 -2.382812 4.773438 -2.203125 5.359375 -2.203125 C 5.921875 -2.203125 6.382812 -2.382812 6.75 -2.75 C 7.113281 -3.125 7.296875 -3.585938 7.296875 -4.140625 C 7.296875 -4.710938 7.109375 -5.179688 6.734375 -5.546875 C 6.359375 -5.921875 5.898438 -6.109375 5.359375 -6.109375 C 4.804688 -6.109375 4.34375 -5.921875 3.96875 -5.546875 Z M 3.96875 -5.546875 " />
      </g>
    </g>
  </g>
  <g fill="#a57b0a" fill-opacity="1">
    <g transform="translate(139.282634, 55.188237)">
      <g>
        <path
          d="M 0.96875 0 L 0.96875 -8.3125 L 3.84375 -8.3125 L 3.84375 -7.109375 L 3.875 -7.109375 C 3.894531 -7.148438 3.925781 -7.203125 3.96875 -7.265625 C 4.019531 -7.335938 4.125 -7.453125 4.28125 -7.609375 C 4.445312 -7.773438 4.625 -7.921875 4.8125 -8.046875 C 5 -8.179688 5.238281 -8.300781 5.53125 -8.40625 C 5.820312 -8.507812 6.117188 -8.5625 6.421875 -8.5625 C 6.734375 -8.5625 7.039062 -8.515625 7.34375 -8.421875 C 7.644531 -8.335938 7.863281 -8.253906 8 -8.171875 L 8.234375 -8.03125 L 7.03125 -5.609375 C 6.675781 -5.910156 6.179688 -6.0625 5.546875 -6.0625 C 5.191406 -6.0625 4.890625 -5.984375 4.640625 -5.828125 C 4.398438 -5.679688 4.226562 -5.5 4.125 -5.28125 C 4.019531 -5.0625 3.945312 -4.875 3.90625 -4.71875 C 3.863281 -4.570312 3.84375 -4.457031 3.84375 -4.375 L 3.84375 0 Z M 0.96875 0 " />
      </g>
    </g>
  </g>
  <g fill="#a57b0a" fill-opacity="1">
    <g transform="translate(147.429439, 55.188237)">
      <g />
    </g>
  </g>
  <g fill="#a57b0a" fill-opacity="1">
    <g transform="translate(151.932061, 55.188237)">
      <g>
        <path
          d="M 8.625 -13.375 L 8.625 -10.6875 L 4.015625 -10.6875 L 4.015625 -8.03125 L 8.421875 -8.03125 L 8.421875 -5.359375 L 4.015625 -5.359375 L 4.015625 -2.671875 L 8.625 -2.671875 L 8.625 0 L 0.96875 0 L 0.96875 -13.375 Z M 8.625 -13.375 " />
      </g>
    </g>
  </g>
  <g fill="#a57b0a" fill-opacity="1">
    <g transform="translate(161.406968, 55.188237)">
      <g>
        <path
          d="M 3.078125 -8.3125 L 5.109375 -3.796875 L 7.125 -8.3125 L 10.53125 -8.3125 L 6.078125 0 L 4.125 0 L -0.328125 -8.3125 Z M 3.078125 -8.3125 " />
      </g>
    </g>
  </g>
  <g fill="#a57b0a" fill-opacity="1">
    <g transform="translate(171.691686, 55.188237)">
      <g>
        <path
          d="M 9.375 -3.765625 L 3.359375 -3.765625 C 3.359375 -3.179688 3.546875 -2.75 3.921875 -2.46875 C 4.296875 -2.1875 4.707031 -2.046875 5.15625 -2.046875 C 5.613281 -2.046875 5.976562 -2.109375 6.25 -2.234375 C 6.519531 -2.359375 6.828125 -2.601562 7.171875 -2.96875 L 9.25 -1.921875 C 8.382812 -0.472656 6.945312 0.25 4.9375 0.25 C 3.6875 0.25 2.613281 -0.175781 1.71875 -1.03125 C 0.820312 -1.894531 0.375 -2.929688 0.375 -4.140625 C 0.375 -5.359375 0.820312 -6.398438 1.71875 -7.265625 C 2.613281 -8.128906 3.6875 -8.5625 4.9375 -8.5625 C 6.257812 -8.5625 7.332031 -8.175781 8.15625 -7.40625 C 8.976562 -6.644531 9.390625 -5.554688 9.390625 -4.140625 C 9.390625 -3.953125 9.382812 -3.828125 9.375 -3.765625 Z M 3.4375 -5.34375 L 6.59375 -5.34375 C 6.53125 -5.78125 6.359375 -6.113281 6.078125 -6.34375 C 5.804688 -6.570312 5.453125 -6.6875 5.015625 -6.6875 C 4.546875 -6.6875 4.171875 -6.5625 3.890625 -6.3125 C 3.609375 -6.070312 3.457031 -5.75 3.4375 -5.34375 Z M 3.4375 -5.34375 " />
      </g>
    </g>
  </g>
  <g fill="#a57b0a" fill-opacity="1">
    <g transform="translate(181.539109, 55.188237)">
      <g>
        <path
          d="M 0.96875 0 L 0.96875 -8.3125 L 3.84375 -8.3125 L 3.84375 -7.109375 L 3.875 -7.109375 C 3.894531 -7.148438 3.925781 -7.203125 3.96875 -7.265625 C 4.019531 -7.335938 4.125 -7.453125 4.28125 -7.609375 C 4.445312 -7.773438 4.625 -7.921875 4.8125 -8.046875 C 5 -8.179688 5.238281 -8.300781 5.53125 -8.40625 C 5.820312 -8.507812 6.117188 -8.5625 6.421875 -8.5625 C 6.734375 -8.5625 7.039062 -8.515625 7.34375 -8.421875 C 7.644531 -8.335938 7.863281 -8.253906 8 -8.171875 L 8.234375 -8.03125 L 7.03125 -5.609375 C 6.675781 -5.910156 6.179688 -6.0625 5.546875 -6.0625 C 5.191406 -6.0625 4.890625 -5.984375 4.640625 -5.828125 C 4.398438 -5.679688 4.226562 -5.5 4.125 -5.28125 C 4.019531 -5.0625 3.945312 -4.875 3.90625 -4.71875 C 3.863281 -4.570312 3.84375 -4.457031 3.84375 -4.375 L 3.84375 0 Z M 0.96875 0 " />
      </g>
    </g>
  </g>
  <g clip-path="url(#08b7882f39)">
    <path fill="#231f20"
      d="M 215.523438 40.847656 L 212.652344 37.980469 C 212.46875 37.796875 212.171875 37.796875 211.988281 37.980469 L 211.710938 38.253906 C 211.84375 38.125 212.097656 38.167969 212.277344 38.351562 L 215.148438 41.21875 Z M 216.753906 40.898438 L 216.207031 41.441406 C 216.335938 41.3125 216.589844 41.355469 216.773438 41.539062 L 232.21875 56.96875 L 232.859375 56.324219 L 217.417969 40.898438 C 217.234375 40.714844 216.9375 40.714844 216.753906 40.898438 Z M 233.785156 58.53125 C 234.097656 58.84375 234.171875 59.273438 233.949219 59.496094 L 234.425781 59.019531 C 234.738281 58.707031 234.738281 58.199219 234.425781 57.886719 L 233.453125 56.914062 L 232.808594 57.558594 Z M 209.335938 36.265625 L 208.988281 36.613281 C 208.714844 36.339844 208.457031 36.042969 208.222656 35.730469 C 207.800781 35.8125 207.554688 36.058594 207.472656 36.480469 C 207.785156 36.714844 208.082031 36.96875 208.355469 37.246094 L 208.007812 37.59375 L 209.777344 39.363281 L 211.109375 38.03125 Z M 211.246094 39.382812 C 211.0625 39.203125 210.808594 39.15625 210.679688 39.285156 L 209.726562 40.242188 C 209.542969 40.425781 209.542969 40.722656 209.726562 40.902344 L 212.59375 43.773438 L 214.117188 42.25 Z M 229.65625 62.65625 C 229.96875 62.96875 230.472656 62.96875 230.785156 62.65625 L 232.917969 60.527344 C 233.136719 60.308594 233.0625 59.875 232.75 59.5625 L 231.773438 58.589844 L 228.679688 61.679688 Z M 218.421875 49.398438 C 218.128906 49.6875 217.65625 49.6875 217.367188 49.398438 C 217.074219 49.105469 217.074219 48.632812 217.367188 48.34375 C 217.65625 48.050781 218.128906 48.050781 218.421875 48.34375 C 218.714844 48.632812 218.714844 49.105469 218.421875 49.398438 Z M 215.171875 42.472656 L 212.644531 45 C 212.460938 45.183594 212.460938 45.480469 212.644531 45.664062 L 228.089844 61.089844 L 231.183594 58 L 215.738281 42.570312 C 215.554688 42.390625 215.304688 42.34375 215.171875 42.472656 "
      fill-opacity="1" fill-rule="nonzero" />
  </g>
  <g clip-path="url(#361a98679d)">
    <path fill="#231f20"
      d="M 209.488281 34 C 209.488281 34 210.972656 31.730469 215.847656 31.257812 C 215.847656 31.257812 215.289062 27.976562 218.246094 27.554688 C 220.035156 27.300781 221.535156 28.617188 222.484375 30.105469 C 221.902344 28.359375 221.175781 27.695312 220.214844 26.621094 C 217.371094 23.445312 222.65625 20.234375 225.878906 24.519531 C 225.320312 22.550781 223.210938 21.484375 223.296875 17.929688 C 223.328125 16.578125 224.285156 15.457031 225.34375 14.789062 C 225.996094 14.378906 226.777344 14.175781 227.597656 14.140625 C 229.445312 14.0625 231.101562 14.992188 232.027344 16.445312 C 231.5 15.105469 230.414062 14.058594 229.0625 13.574219 C 229.96875 12.769531 231.226562 12.394531 232.511719 12.625 C 234.113281 12.914062 234.957031 14.222656 235.191406 14.664062 C 236.042969 16.304688 235.898438 18.195312 234.972656 19.648438 C 235.953125 18.617188 236.441406 17.214844 236.328125 15.808594 C 237.390625 15.867188 239.800781 16.351562 239.859375 19.464844 C 239.882812 20.835938 239.132812 22.074219 238.09375 22.914062 C 239.015625 22.425781 239.753906 21.65625 240.214844 20.742188 C 242.5 21.515625 243.917969 23.871094 243.453125 26.304688 C 243.085938 28.230469 241.660156 29.753906 239.859375 30.132812 C 239.34375 30.246094 238.792969 30.226562 238.242188 30.136719 C 236.417969 29.84375 234.984375 28.597656 234.371094 26.988281 C 234.503906 27.75 234.8125 28.464844 235.257812 29.078125 C 235.253906 29.085938 235.253906 29.09375 235.25 29.105469 C 234.476562 31.253906 231.710938 31.855469 230.121094 30.21875 C 229.960938 30.050781 229.808594 29.875 229.671875 29.6875 C 230.035156 30.769531 231.15625 31.558594 231.15625 31.558594 C 231.148438 31.609375 231.140625 31.660156 231.128906 31.714844 C 230.757812 33.65625 229.15625 35.050781 227.28125 35.246094 C 227.253906 35.246094 227.222656 35.246094 227.191406 35.246094 C 225.34375 35.214844 223.746094 34.191406 222.90625 32.6875 C 223.140625 33.402344 223.53125 34.042969 224.039062 34.574219 C 223.117188 35.269531 221.773438 35.757812 220.554688 34.183594 C 220.554688 34.183594 219.484375 37.25 216.507812 35.738281 C 212.59375 33.746094 209.488281 34 209.488281 34 Z M 207.773438 35.066406 C 207.773438 35.066406 210.632812 33.953125 216.03125 36.625 C 216.742188 36.976562 217.414062 37.1875 218.066406 37.1875 C 219.113281 37.1875 220.046875 36.710938 220.769531 35.808594 C 220.777344 35.796875 220.789062 35.785156 220.800781 35.769531 C 221.382812 36.140625 221.941406 36.238281 222.371094 36.238281 C 223.050781 36.238281 223.742188 36.003906 224.425781 35.539062 C 225.269531 35.992188 226.214844 36.238281 227.175781 36.25 C 227.199219 36.253906 227.222656 36.253906 227.246094 36.253906 L 227.335938 36.253906 L 227.386719 36.246094 C 228.515625 36.128906 229.601562 35.644531 230.445312 34.882812 C 231.257812 34.148438 231.8125 33.210938 232.066406 32.152344 C 232.152344 32.160156 232.238281 32.160156 232.324219 32.160156 C 233.152344 32.160156 233.949219 31.917969 234.636719 31.457031 C 235.105469 31.140625 235.5 30.734375 235.800781 30.261719 C 236.488281 30.703125 237.265625 31 238.082031 31.132812 C 238.433594 31.1875 238.777344 31.21875 239.09375 31.21875 C 239.433594 31.21875 239.765625 31.183594 240.070312 31.121094 C 241.15625 30.890625 242.144531 30.324219 242.929688 29.488281 C 243.703125 28.660156 244.226562 27.625 244.445312 26.496094 C 244.714844 25.085938 244.460938 23.628906 243.734375 22.390625 C 243.070312 21.261719 242.058594 20.390625 240.851562 19.902344 C 240.863281 19.75 240.871094 19.601562 240.867188 19.449219 C 240.828125 17.34375 239.855469 16.230469 239.046875 15.664062 C 238.128906 15.023438 237.089844 14.839844 236.382812 14.800781 L 236.355469 14.800781 C 236.277344 14.597656 236.1875 14.394531 236.085938 14.199219 C 235.898438 13.839844 234.851562 12.023438 232.691406 11.632812 C 232.382812 11.578125 232.070312 11.550781 231.761719 11.550781 C 230.511719 11.550781 229.316406 12 228.394531 12.820312 L 228.039062 13.132812 C 227.96875 13.132812 227.894531 13.128906 227.820312 13.128906 C 227.730469 13.128906 227.644531 13.132812 227.554688 13.136719 C 226.507812 13.179688 225.582031 13.449219 224.808594 13.9375 C 223.265625 14.90625 222.324219 16.390625 222.285156 17.90625 C 222.25 19.449219 222.585938 20.59375 223.03125 21.515625 C 222.757812 21.46875 222.484375 21.445312 222.214844 21.445312 C 220.621094 21.445312 219.226562 22.265625 218.65625 23.539062 C 218.230469 24.492188 218.320312 25.542969 218.894531 26.519531 C 218.828125 26.515625 218.761719 26.515625 218.691406 26.515625 C 218.496094 26.515625 218.300781 26.53125 218.105469 26.558594 C 217.023438 26.710938 216.148438 27.207031 215.574219 27.992188 C 215.007812 28.769531 214.835938 29.667969 214.800781 30.351562 C 212.777344 30.613281 211.195312 31.101562 210.171875 31.921875 C 208.582031 33.191406 207.773438 35.066406 207.773438 35.066406 "
      fill-opacity="1" fill-rule="nonzero" />
  </g>
  <path fill="#231f20"
    d="M 222.742188 27.835938 C 223.273438 27.234375 224.050781 26.859375 224.917969 26.859375 C 226.515625 26.859375 227.816406 28.152344 227.816406 29.753906 C 227.816406 30.414062 227.59375 31.019531 227.222656 31.507812 C 227.953125 30.960938 228.425781 30.09375 228.425781 29.117188 C 228.425781 27.46875 227.089844 26.136719 225.441406 26.136719 C 224.25 26.136719 223.222656 26.832031 222.742188 27.835938 "
    fill-opacity="1" fill-rule="nonzero" />
  <path fill="#231f20"
    d="M 227.457031 21.59375 C 227.984375 21 228.753906 20.621094 229.613281 20.621094 C 231.199219 20.621094 232.488281 21.910156 232.488281 23.496094 C 232.488281 24.148438 232.269531 24.753906 231.902344 25.234375 C 232.625 24.695312 233.09375 23.835938 233.09375 22.863281 C 233.09375 21.230469 231.765625 19.90625 230.128906 19.90625 C 228.949219 19.90625 227.929688 20.597656 227.457031 21.59375 "
    fill-opacity="1" fill-rule="nonzero" />
  <path fill="#231f20"
    d="M 217.320312 30.753906 C 217.714844 30.503906 218.210938 30.417969 218.695312 30.558594 C 219.589844 30.816406 220.109375 31.753906 219.847656 32.648438 C 219.742188 33.015625 219.519531 33.320312 219.234375 33.53125 C 219.730469 33.347656 220.132812 32.9375 220.292969 32.390625 C 220.558594 31.46875 220.027344 30.503906 219.105469 30.238281 C 218.4375 30.046875 217.75 30.269531 217.320312 30.753906 "
    fill-opacity="1" fill-rule="nonzero" />
  <g clip-path="url(#c5173f8b89)">
    <path fill="#231f20"
      d="M 56.03125 41.652344 L 58.902344 38.785156 C 59.085938 38.601562 59.382812 38.601562 59.566406 38.785156 L 59.839844 39.0625 C 59.710938 38.929688 59.457031 38.976562 59.273438 39.15625 L 56.402344 42.027344 Z M 54.800781 41.703125 L 55.347656 42.25 C 55.21875 42.117188 54.964844 42.164062 54.78125 42.347656 L 39.335938 57.773438 L 38.691406 57.128906 L 54.136719 41.703125 C 54.320312 41.519531 54.617188 41.519531 54.800781 41.703125 Z M 37.769531 59.335938 C 37.457031 59.648438 37.382812 60.082031 37.605469 60.300781 L 37.125 59.824219 C 36.8125 59.511719 36.8125 59.007812 37.125 58.695312 L 38.101562 57.71875 L 38.746094 58.363281 Z M 62.21875 37.070312 L 62.566406 37.417969 C 62.839844 37.144531 63.09375 36.851562 63.332031 36.539062 C 63.75 36.617188 64 36.867188 64.082031 37.285156 C 63.765625 37.519531 63.472656 37.777344 63.199219 38.050781 L 63.546875 38.398438 L 61.777344 40.167969 L 60.445312 38.839844 Z M 60.308594 40.191406 C 60.492188 40.007812 60.746094 39.964844 60.875 40.09375 L 61.828125 41.046875 C 62.011719 41.230469 62.011719 41.527344 61.828125 41.710938 L 58.957031 44.578125 L 57.4375 43.058594 Z M 41.898438 63.460938 C 41.585938 63.773438 41.078125 63.773438 40.765625 63.460938 L 38.636719 61.332031 C 38.417969 61.113281 38.492188 60.679688 38.804688 60.367188 L 39.78125 59.394531 L 42.875 62.484375 Z M 53.132812 50.203125 C 53.421875 50.496094 53.894531 50.496094 54.1875 50.203125 C 54.480469 49.910156 54.480469 49.441406 54.1875 49.148438 C 53.894531 48.859375 53.421875 48.859375 53.132812 49.148438 C 52.839844 49.441406 52.839844 49.910156 53.132812 50.203125 Z M 56.378906 43.28125 L 58.910156 45.804688 C 59.09375 45.988281 59.09375 46.285156 58.910156 46.46875 L 43.464844 61.894531 L 40.371094 58.804688 L 55.8125 43.378906 C 55.996094 43.195312 56.25 43.152344 56.378906 43.28125 "
      fill-opacity="1" fill-rule="nonzero" />
  </g>
  <g clip-path="url(#d5e6271126)">
    <path fill="#231f20"
      d="M 62.066406 34.808594 C 62.066406 34.808594 60.582031 32.539062 55.707031 32.0625 C 55.707031 32.0625 56.265625 28.78125 53.304688 28.359375 C 51.519531 28.105469 50.019531 29.421875 49.066406 30.910156 C 49.652344 29.167969 50.378906 28.503906 51.339844 27.429688 C 54.183594 24.25 48.898438 21.039062 45.675781 25.324219 C 46.230469 23.355469 48.34375 22.292969 48.257812 18.734375 C 48.226562 17.382812 47.269531 16.261719 46.210938 15.59375 C 45.558594 15.1875 44.773438 14.984375 43.953125 14.949219 C 42.109375 14.867188 40.453125 15.800781 39.523438 17.25 C 40.054688 15.910156 41.140625 14.863281 42.492188 14.378906 C 41.582031 13.578125 40.328125 13.199219 39.042969 13.429688 C 37.441406 13.71875 36.59375 15.027344 36.363281 15.472656 C 35.511719 17.109375 35.65625 19 36.582031 20.453125 C 35.601562 19.425781 35.113281 18.019531 35.226562 16.613281 C 34.160156 16.671875 31.753906 17.15625 31.695312 20.273438 C 31.671875 21.644531 32.421875 22.878906 33.460938 23.722656 C 32.535156 23.230469 31.796875 22.464844 31.335938 21.546875 C 29.054688 22.324219 27.632812 24.679688 28.101562 27.109375 C 28.46875 29.035156 29.894531 30.558594 31.691406 30.941406 C 32.210938 31.050781 32.761719 31.03125 33.3125 30.941406 C 35.136719 30.648438 36.570312 29.402344 37.183594 27.792969 C 37.050781 28.558594 36.742188 29.269531 36.296875 29.882812 C 36.296875 29.890625 36.300781 29.902344 36.304688 29.910156 C 37.078125 32.058594 39.84375 32.664062 41.433594 31.023438 C 41.59375 30.855469 41.746094 30.679688 41.882812 30.492188 C 41.519531 31.574219 40.398438 32.363281 40.398438 32.363281 C 40.40625 32.414062 40.414062 32.46875 40.421875 32.519531 C 40.796875 34.460938 42.398438 35.855469 44.269531 36.050781 C 44.300781 36.050781 44.332031 36.050781 44.363281 36.050781 C 46.207031 36.023438 47.808594 34.996094 48.648438 33.492188 C 48.414062 34.207031 48.023438 34.847656 47.515625 35.378906 C 48.4375 36.074219 49.78125 36.5625 50.996094 34.988281 C 50.996094 34.988281 52.070312 38.054688 55.046875 36.542969 C 58.957031 34.550781 62.066406 34.808594 62.066406 34.808594 Z M 63.78125 35.871094 C 63.78125 35.871094 60.921875 34.757812 55.523438 37.429688 C 54.8125 37.78125 54.140625 37.992188 53.488281 37.992188 C 52.441406 37.992188 51.507812 37.515625 50.785156 36.617188 C 50.773438 36.601562 50.765625 36.589844 50.753906 36.578125 C 50.171875 36.945312 49.613281 37.042969 49.183594 37.042969 C 48.5 37.042969 47.8125 36.808594 47.128906 36.34375 C 46.285156 36.796875 45.339844 37.042969 44.375 37.058594 C 44.355469 37.058594 44.332031 37.058594 44.308594 37.058594 L 44.21875 37.058594 L 44.167969 37.050781 C 43.039062 36.933594 41.953125 36.449219 41.109375 35.6875 C 40.296875 34.953125 39.738281 34.015625 39.488281 32.957031 C 39.402344 32.964844 39.316406 32.964844 39.230469 32.964844 C 38.402344 32.964844 37.601562 32.722656 36.917969 32.261719 C 36.445312 31.945312 36.054688 31.542969 35.753906 31.066406 C 35.066406 31.507812 34.289062 31.804688 33.472656 31.9375 C 33.117188 31.996094 32.777344 32.023438 32.460938 32.023438 C 32.117188 32.023438 31.789062 31.992188 31.484375 31.925781 C 30.398438 31.695312 29.410156 31.128906 28.625 30.292969 C 27.851562 29.464844 27.328125 28.433594 27.109375 27.300781 C 26.839844 25.890625 27.089844 24.433594 27.820312 23.195312 C 28.480469 22.070312 29.496094 21.195312 30.699219 20.707031 C 30.6875 20.558594 30.683594 20.40625 30.6875 20.253906 C 30.726562 18.148438 31.699219 17.035156 32.507812 16.472656 C 33.425781 15.828125 34.460938 15.644531 35.167969 15.605469 L 35.199219 15.605469 C 35.277344 15.402344 35.367188 15.203125 35.46875 15.007812 C 35.65625 14.644531 36.703125 12.828125 38.863281 12.441406 C 39.171875 12.382812 39.484375 12.355469 39.792969 12.355469 C 41.039062 12.355469 42.234375 12.808594 43.160156 13.625 L 43.511719 13.9375 C 43.585938 13.9375 43.660156 13.933594 43.734375 13.933594 C 43.820312 13.933594 43.910156 13.9375 44 13.941406 C 45.046875 13.988281 45.972656 14.253906 46.746094 14.742188 C 48.289062 15.710938 49.230469 17.195312 49.265625 18.710938 C 49.304688 20.253906 48.96875 21.398438 48.523438 22.320312 C 48.796875 22.273438 49.070312 22.25 49.339844 22.25 C 50.929688 22.25 52.328125 23.070312 52.898438 24.34375 C 53.324219 25.296875 53.234375 26.347656 52.660156 27.324219 C 52.726562 27.324219 52.792969 27.320312 52.859375 27.320312 C 53.054688 27.320312 53.253906 27.335938 53.449219 27.363281 C 54.53125 27.519531 55.40625 28.015625 55.980469 28.796875 C 56.546875 29.574219 56.71875 30.472656 56.753906 31.15625 C 58.777344 31.417969 60.359375 31.910156 61.382812 32.726562 C 62.96875 33.996094 63.78125 35.871094 63.78125 35.871094 "
      fill-opacity="1" fill-rule="nonzero" />
  </g>
  <path fill="#231f20"
    d="M 48.808594 28.640625 C 48.277344 28.042969 47.503906 27.664062 46.636719 27.664062 C 45.035156 27.664062 43.738281 28.960938 43.738281 30.558594 C 43.738281 31.21875 43.960938 31.824219 44.332031 32.3125 C 43.601562 31.769531 43.128906 30.898438 43.128906 29.921875 C 43.128906 28.273438 44.464844 26.941406 46.113281 26.941406 C 47.304688 26.941406 48.332031 27.636719 48.808594 28.640625 "
    fill-opacity="1" fill-rule="nonzero" />
  <path fill="#231f20"
    d="M 44.097656 22.398438 C 43.570312 21.804688 42.800781 21.429688 41.941406 21.429688 C 40.355469 21.429688 39.066406 22.714844 39.066406 24.300781 C 39.066406 24.957031 39.285156 25.558594 39.652344 26.042969 C 38.929688 25.5 38.460938 24.640625 38.460938 23.667969 C 38.460938 22.035156 39.789062 20.710938 41.421875 20.710938 C 42.605469 20.710938 43.621094 21.402344 44.097656 22.398438 "
    fill-opacity="1" fill-rule="nonzero" />
  <path fill="#231f20"
    d="M 54.234375 31.558594 C 53.839844 31.308594 53.34375 31.222656 52.859375 31.363281 C 51.960938 31.621094 51.445312 32.558594 51.707031 33.453125 C 51.8125 33.820312 52.035156 34.125 52.320312 34.339844 C 51.824219 34.152344 51.417969 33.742188 51.261719 33.195312 C 50.996094 32.273438 51.527344 31.308594 52.449219 31.042969 C 53.113281 30.851562 53.800781 31.074219 54.234375 31.558594 "
    fill-opacity="1" fill-rule="nonzero" />
</svg>