<?xml version="1.0" standalone="no"?>
<!DOCTYPE svg PUBLIC "-//W3C//DTD SVG 20010904//EN" "http://www.w3.org/TR/2001/REC-SVG-20010904/DTD/svg10.dtd">
<svg version="1.0" xmlns="http://www.w3.org/2000/svg"
  width="500.000000pt" height="500.000000pt" viewBox="0 0 500.000000 500.000000"
  preserveAspectRatio="xMidYMid meet">

  <g transform="translate(0.000000,500.000000) scale(0.100000,-0.100000)"
    fill="#000000" stroke="none">
    <path
      d="M2295 4990 c-302 -25 -604 -108 -880 -241 -511 -246 -919 -654 -1165
-1164 -418 -869 -300 -1893 306 -2648 261 -326 633 -600 1027 -756 320 -127
748 -197 1050 -172 471 40 835 158 1211 394 240 149 512 407 674 637 95 135
120 176 180 291 174 331 256 618 293 1031 9 109 9 167 0 275 -37 415 -122 718
-293 1042 -309 584 -868 1036 -1509 1220 -274 79 -618 114 -894 91z m505 -44
c239 -32 482 -97 655 -176 251 -114 472 -252 635 -394 75 -66 265 -262 314
-323 229 -290 404 -645 480 -978 88 -380 86 -807 -5 -1170 -45 -180 -144 -439
-206 -537 -13 -21 -23 -40 -23 -43 0 -15 -139 -228 -206 -316 -74 -96 -249
-282 -339 -360 -158 -136 -362 -270 -547 -360 -368 -180 -822 -269 -1220 -240
-287 22 -462 59 -743 161 -112 41 -342 159 -455 235 -153 103 -237 171 -359
289 -356 347 -579 737 -691 1211 -79 334 -82 764 -6 1110 35 161 125 408 204
560 127 247 266 433 476 640 476 470 1120 729 1766 710 91 -3 212 -12 270 -19z" />
    <path
      d="M2310 4910 c-985 -73 -1840 -754 -2128 -1695 -87 -283 -116 -526
-101 -835 29 -588 259 -1117 674 -1548 332 -345 785 -596 1245 -688 294 -59
698 -58 980 1 595 126 1142 487 1483 978 289 416 436 877 437 1370 0 219 -22
391 -77 612 -235 932 -1031 1647 -1988 1784 -156 23 -381 32 -525 21z m390
-75 c308 -30 538 -95 815 -230 253 -123 440 -257 640 -459 220 -222 364 -439
505 -760 55 -125 123 -376 151 -561 19 -120 19 -550 1 -660 -69 -416 -238
-803 -484 -1112 -78 -97 -261 -283 -348 -352 -36 -29 -72 -58 -81 -65 -9 -7
-42 -31 -75 -53 -453 -307 -950 -446 -1478 -413 -270 17 -454 57 -706 153
-183 69 -417 200 -575 320 -209 160 -429 403 -567 627 -96 155 -167 302 -222
456 -136 387 -169 845 -89 1244 22 113 88 336 105 355 4 5 8 15 8 22 0 42 190
395 278 518 190 263 472 517 747 672 64 37 285 143 295 143 6 0 18 4 28 10 57
32 348 110 487 129 227 33 359 37 565 16z" />
    <path
      d="M2335 4784 c-311 -23 -631 -114 -915 -261 -96 -50 -247 -145 -311
-197 -14 -12 -43 -34 -65 -50 -21 -17 -98 -89 -170 -160 -315 -315 -522 -688
-613 -1101 -46 -210 -46 -215 -46 -500 0 -189 4 -304 13 -355 21 -114 63 -294
72 -303 4 -5 15 17 25 48 21 75 88 148 156 172 27 10 49 20 49 23 0 3 -15 14
-33 25 -71 42 -139 131 -178 237 -17 45 -20 78 -19 212 0 214 26 372 99 592
91 281 218 517 394 732 57 70 281 286 357 344 222 170 492 303 765 378 167 45
414 80 570 80 93 0 305 -23 420 -45 418 -80 791 -274 1090 -564 224 -218 335
-371 465 -636 135 -277 201 -535 216 -845 7 -155 -2 -223 -43 -307 -31 -64
-111 -156 -154 -179 -39 -20 -36 -28 11 -44 78 -26 152 -113 174 -204 4 -15 9
-27 11 -25 2 3 13 38 23 79 92 347 97 720 16 1080 -116 515 -402 965 -820
1291 -331 259 -679 405 -1111 469 -78 11 -365 20 -448 14z" />
    <path
      d="M2300 4654 c-14 -2 -63 -9 -110 -15 -98 -13 -260 -50 -363 -84 -814
-261 -1402 -987 -1487 -1834 -20 -208 -11 -304 40 -410 138 -284 550 -308 728
-41 53 79 69 138 76 295 10 190 40 318 115 480 35 73 115 213 130 225 3 3 19
23 36 45 60 81 193 203 296 273 64 43 203 115 274 142 263 98 562 107 835 24
369 -112 684 -404 834 -773 41 -101 74 -255 86 -401 19 -224 49 -303 149 -391
126 -111 305 -138 465 -69 49 21 166 123 166 146 0 7 4 14 8 16 16 6 52 107
62 176 9 55 8 103 -5 223 -15 155 -38 299 -55 354 -6 17 -18 59 -29 95 -126
433 -412 836 -793 1118 -31 23 -61 42 -67 42 -5 0 -11 4 -13 8 -1 4 -32 26
-68 48 -224 138 -500 241 -781 289 -89 16 -470 29 -529 19z m586 -215 c68 -13
93 -29 47 -29 -17 0 -33 -6 -36 -14 -19 -49 -87 -357 -81 -367 8 -13 65 -18
88 -8 24 11 36 29 57 84 6 17 13 24 16 18 5 -14 -24 -122 -38 -139 -6 -8 -34
-4 -96 13 -49 12 -100 23 -115 23 -15 0 -30 5 -33 10 -4 6 5 10 20 10 32 0 35
9 74 182 47 208 45 194 19 212 -22 15 -22 16 -2 16 11 0 47 -5 80 -11z m-782
-48 c22 -69 20 -83 -7 -36 -22 38 -25 40 -70 39 -26 0 -49 -3 -53 -7 -9 -9 26
-147 38 -147 29 0 48 23 49 58 1 34 3 32 24 -33 31 -96 39 -135 26 -135 -5 0
-13 15 -16 33 -9 46 -29 69 -57 65 -28 -4 -27 -26 6 -143 20 -74 24 -80 47
-77 13 1 35 11 49 21 22 16 25 26 25 75 -1 91 16 69 31 -40 l6 -52 -48 -11
c-27 -5 -79 -19 -117 -29 -40 -12 -70 -16 -73 -10 -3 5 3 12 15 15 12 3 21 10
21 15 0 6 -19 81 -41 167 -23 86 -44 166 -47 179 -3 15 -12 22 -28 22 -37 0
-28 18 14 29 20 6 69 19 107 29 39 11 73 20 76 21 4 1 14 -21 23 -48z m1271
-131 c4 -6 -3 -9 -17 -7 -18 1 -28 -8 -50 -48 -15 -27 -28 -57 -28 -65 0 -18
79 -65 90 -53 4 4 20 32 36 62 22 44 25 57 16 72 -7 11 -8 19 -4 19 11 0 104
-48 116 -61 16 -14 -2 -23 -19 -9 -9 7 -17 11 -19 9 -5 -7 -65 -117 -127 -235
-55 -103 -57 -111 -42 -127 30 -30 8 -28 -55 5 -63 33 -80 52 -41 46 18 -2 30
11 65 75 61 110 61 111 19 136 -20 11 -42 21 -49 21 -7 0 -35 -43 -62 -95 -45
-88 -48 -97 -31 -106 9 -6 15 -14 12 -18 -5 -9 -109 39 -128 58 -8 8 -3 11 15
11 31 0 59 42 151 225 49 97 54 112 41 126 -8 8 -14 19 -14 22 0 9 117 -50
125 -63z m-1684 -10 c56 -30 65 -132 20 -227 l-30 -62 26 -47 c23 -42 28 -45
55 -40 43 9 26 -10 -42 -44 -62 -31 -99 -40 -67 -16 23 18 22 27 -11 88 -16
29 -53 98 -82 153 -67 127 -67 126 -99 119 -42 -10 -13 12 65 51 71 36 128 44
165 25z m883 -209 c9 -14 -32 -21 -131 -21 -92 0 -129 15 -55 23 75 8 181 7
186 -2z m1254 -94 l32 -33 -110 -184 c-86 -143 -107 -186 -98 -197 6 -7 8 -17
4 -20 -4 -4 -30 17 -59 46 -45 45 -49 51 -26 46 23 -6 30 0 68 61 l42 67 -22
23 c-12 13 -26 24 -31 24 -13 0 -138 -81 -138 -89 0 -4 5 -12 12 -19 6 -6 9
-14 6 -17 -3 -3 -25 12 -49 34 -24 21 -41 43 -36 47 4 4 13 2 19 -4 7 -7 17
-12 24 -12 14 0 305 191 322 212 9 11 10 18 2 23 -12 7 -14 25 -2 25 4 0 22
-15 40 -33z m-2487 -103 c153 -104 173 -115 202 -108 27 5 29 5 16 -7 -8 -8
-34 -32 -57 -53 -39 -37 -70 -45 -42 -11 7 9 11 17 9 19 -13 10 -129 86 -132
86 -2 0 -15 -10 -30 -22 l-25 -23 24 -40 c13 -22 28 -50 34 -63 12 -28 36 -38
55 -22 31 26 13 -9 -22 -44 -43 -42 -57 -46 -42 -13 9 20 1 40 -61 148 -122
211 -129 220 -151 208 -30 -16 -23 6 12 35 17 14 33 26 35 26 3 0 81 -52 175
-116z m-402 -145 c-12 -24 -11 -26 193 -232 88 -88 96 -100 85 -117 -6 -11
-16 -20 -22 -20 -9 0 -93 29 -215 74 -19 7 -68 25 -108 40 -59 22 -76 25 -88
15 -27 -22 -23 -4 13 54 37 60 53 72 46 34 -4 -22 6 -27 146 -79 83 -30 151
-53 151 -50 0 3 -50 56 -112 119 -101 102 -113 111 -128 98 -30 -28 -30 -15 1
35 30 48 62 72 38 29z m3234 -184 c39 -68 49 -105 17 -67 l-18 22 -46 -27
c-25 -16 -94 -58 -154 -95 -105 -65 -132 -75 -166 -62 -21 8 -91 124 -80 133
56 47 147 111 152 107 3 -4 -15 -28 -41 -54 -54 -55 -68 -99 -43 -137 20 -30
46 -33 53 -5 3 13 58 53 144 106 77 47 141 90 144 94 3 5 1 11 -5 15 -12 7
-14 35 -2 35 4 0 24 -29 45 -65z" />
    <path
      d="M1563 4223 c-7 -2 -13 -8 -13 -12 0 -15 111 -211 119 -211 5 0 13 18
19 40 26 104 -49 214 -125 183z" />
    <path
      d="M3697 3834 c-47 -34 -48 -36 -31 -55 22 -24 28 -24 42 4 6 12 21 37
32 55 28 41 17 40 -43 -4z" />
    <path
      d="M1225 3818 c14 -24 29 -49 34 -57 7 -11 11 -11 29 0 12 8 22 18 22
24 0 9 -93 75 -105 75 -4 0 6 -19 20 -42z" />
    <path
      d="M2239 3750 c-200 -40 -409 -139 -562 -267 -74 -62 -183 -184 -239
-267 -143 -214 -201 -390 -217 -655 -10 -167 -27 -227 -91 -323 -22 -33 -39
-63 -37 -65 2 -2 20 4 40 12 50 21 133 19 185 -5 23 -10 42 -18 42 -16 0 2
-10 41 -22 87 -18 69 -22 113 -22 249 -1 213 23 327 106 507 152 331 495 593
860 658 108 19 323 19 414 0 252 -52 442 -153 615 -325 209 -207 319 -439 349
-734 12 -116 1 -273 -25 -374 -20 -76 -20 -75 25 -52 49 25 157 27 200 5 17
-9 30 -13 30 -10 0 3 -17 29 -38 58 -59 80 -82 153 -93 297 -23 303 -90 504
-238 711 -194 269 -459 441 -790 510 -122 25 -365 25 -492 -1z" />
    <path
      d="M2244 3586 c-78 -29 -129 -60 -154 -96 -27 -38 -26 -85 2 -104 30
-21 44 -20 68 4 27 27 25 40 -4 40 -26 0 -39 20 -30 45 6 16 41 20 61 7 35
-22 30 -98 -8 -128 -44 -34 -118 -15 -139 37 -16 38 -7 96 20 124 32 34 24 36
-37 9 -154 -68 -361 -243 -462 -392 -45 -67 -48 -84 -9 -58 68 44 176 27 240
-38 l40 -41 18 22 c15 19 20 20 30 8 9 -11 6 -21 -14 -48 -16 -20 -24 -41 -20
-50 7 -20 -13 -83 -39 -121 -43 -62 -130 -69 -186 -15 -37 35 -47 70 -31 109
10 25 18 30 46 30 44 0 53 -28 22 -71 l-23 -31 24 -19 c41 -34 99 -19 131 33
58 95 -23 218 -142 218 -59 0 -95 -17 -136 -64 -57 -66 -65 -168 -19 -238 32
-47 106 -100 195 -139 210 -91 306 -188 333 -334 18 -97 -20 -232 -86 -302
-14 -15 -25 -30 -25 -34 0 -17 143 -124 213 -160 26 -13 55 -35 64 -48 17 -26
21 -26 -54 -5 -19 5 -23 2 -23 -18 0 -35 -36 -70 -68 -66 -23 2 -27 8 -27 33
0 27 3 30 28 28 24 -2 27 1 27 32 0 60 -73 77 -109 26 -54 -75 0 -168 149
-258 111 -67 257 -116 212 -71 -15 15 -15 51 0 66 26 26 49 14 117 -62 37 -42
71 -35 121 24 44 53 76 64 101 34 10 -12 10 -22 1 -47 -6 -17 -10 -32 -8 -35
10 -9 180 70 247 114 109 73 155 150 130 216 -6 15 -21 34 -34 43 -21 14 -27
14 -52 1 -34 -18 -45 -33 -45 -65 0 -19 4 -22 22 -18 43 12 68 -42 29 -63 -28
-15 -68 6 -80 43 -6 16 -8 33 -5 38 8 14 -22 11 -66 -7 -23 -9 -43 -14 -46
-11 -9 8 15 47 29 47 22 0 119 51 172 91 74 54 111 97 100 113 -101 136 -126
241 -89 367 34 114 109 182 314 284 139 68 172 93 204 148 32 55 40 104 27
155 -41 150 -245 194 -321 70 -31 -51 -27 -120 9 -160 24 -27 36 -33 71 -33
56 0 80 28 50 60 -24 25 -26 48 -6 65 24 19 59 8 74 -23 12 -24 11 -32 -5 -64
-25 -51 -63 -76 -116 -76 -85 0 -144 74 -133 167 5 48 4 52 -35 98 -30 36 -38
52 -31 64 7 13 15 9 46 -27 27 -32 40 -41 50 -34 87 65 99 70 160 70 38 -1 73
-7 94 -18 42 -23 41 -10 -4 61 -49 76 -212 236 -300 294 -86 57 -186 108 -211
107 -11 0 -13 -3 -5 -6 15 -6 52 -76 52 -98 0 -32 -32 -77 -65 -91 -45 -19
-48 -18 -84 12 -26 21 -31 33 -31 69 0 48 17 68 52 63 35 -5 37 -45 3 -58 -26
-10 -26 -12 -12 -33 20 -31 61 -34 81 -5 9 12 16 33 16 45 0 29 -52 87 -104
117 -50 29 -140 59 -162 54 -14 -3 -13 -7 5 -30 25 -31 27 -61 6 -78 -25 -20
-58 -4 -108 55 -27 30 -52 55 -57 55 -5 0 -26 -19 -47 -41 -80 -88 -95 -95
-127 -60 -19 21 -13 44 22 84 14 16 13 17 -9 16 -13 0 -51 -10 -85 -23z m418
-279 c28 -9 35 -16 29 -26 -7 -11 -21 -11 -82 -1 -76 13 -216 8 -276 -9 -24
-7 -35 -6 -44 5 -6 8 -10 16 -8 18 30 24 316 33 381 13z m-718 -37 c63 -8 119
-7 189 0 119 13 147 9 147 -23 0 -23 -28 -61 -51 -69 -9 -3 -7 -16 9 -49 12
-25 23 -61 24 -80 1 -19 4 -5 7 31 6 61 7 64 20 41 22 -40 26 -143 7 -201 -12
-38 -14 -55 -6 -71 6 -11 10 -41 8 -67 -3 -40 -7 -49 -31 -60 -23 -11 -34 -11
-58 -2 -30 13 -36 27 -41 90 -3 29 -7 35 -28 37 -35 4 -67 -27 -75 -70 -6 -32
-4 -40 22 -64 17 -16 56 -37 89 -48 166 -55 207 -92 239 -216 17 -63 17 -175
0 -224 -5 -16 -5 -17 4 -5 5 8 15 45 22 81 13 73 1 166 -27 221 -12 24 -12 27
0 22 17 -6 55 -92 63 -141 4 -23 10 -32 19 -29 32 12 31 -143 -1 -205 -10 -19
-38 -61 -63 -94 -72 -96 -97 -158 -97 -241 0 -58 4 -77 25 -106 34 -51 72 -70
138 -71 92 0 146 39 158 115 5 25 1 39 -11 52 -17 16 -19 16 -44 -8 -82 -79
-182 34 -102 114 33 34 68 45 115 36 127 -24 170 -213 72 -316 -50 -53 -102
-74 -186 -74 -68 -1 -81 3 -141 36 -147 83 -226 227 -199 368 15 79 28 115 49
134 18 17 19 15 14 -66 -3 -46 -1 -99 5 -118 l9 -35 7 30 c10 38 29 96 56 165
56 143 63 215 31 286 -20 44 -67 84 -98 84 -31 -1 -65 -34 -61 -60 2 -18 14
-27 53 -39 49 -16 50 -17 53 -58 4 -55 -22 -83 -78 -83 -32 0 -48 7 -76 33
-31 28 -36 39 -41 94 -5 50 -2 69 16 105 23 49 80 88 127 88 39 0 20 14 -46
35 -58 19 -104 41 -133 64 -24 20 -33 6 -19 -31 17 -45 5 -49 -29 -8 -93 111
-43 280 95 321 59 17 77 37 83 91 5 54 -20 105 -64 131 -25 14 -36 16 -53 7
-17 -9 -20 -19 -18 -65 2 -45 -2 -58 -22 -80 -31 -33 -65 -32 -102 5 -27 27
-30 36 -25 73 2 23 7 49 10 57 4 10 -7 21 -36 36 -52 25 -77 64 -58 88 16 19
19 19 135 6z m937 -7 c43 -3 120 0 175 7 89 11 99 10 110 -5 21 -28 2 -58 -53
-84 l-50 -25 -22 -85 c-31 -123 -185 -694 -242 -903 -27 -98 -49 -182 -49
-187 0 -5 -4 -21 -10 -36 l-10 -26 -26 24 c-24 23 -25 28 -16 68 9 42 59 235
103 399 11 41 47 181 80 309 33 129 71 277 85 329 13 52 24 98 24 103 0 5 -13
9 -30 9 -34 0 -31 7 -80 -205 -73 -312 -197 -821 -215 -881 -8 -28 -15 -58
-15 -66 0 -13 -14 -17 -62 -20 -35 -2 -64 -3 -66 -2 -2 1 5 42 16 91 11 48 34
153 51 233 18 80 38 174 46 210 8 36 26 121 41 190 15 69 44 198 64 287 l37
163 -34 26 c-59 45 -36 100 37 89 19 -3 69 -8 111 -12z m-761 -150 c23 -22 31
-37 32 -68 1 -50 -8 -81 -28 -89 -16 -6 -25 11 -43 87 -14 58 -14 97 -1 97 5
0 23 -12 40 -27z m-72 -160 c2 -14 -7 -28 -27 -43 l-31 -21 -10 27 c-12 29
-11 31 22 49 30 17 42 13 46 -12z m161 -254 c22 -8 40 -8 63 0 37 13 36 14 44
-29 7 -30 5 -33 -12 -25 -10 4 -44 16 -74 27 -30 10 -59 23 -64 28 -13 13 3
13 43 -1z m-89 -124 c37 -19 37 -28 1 -54 l-29 -21 -5 28 c-3 15 -9 35 -12 45
-9 21 6 22 45 2z m163 -163 c25 -27 47 -87 47 -128 0 -41 -19 -114 -30 -114
-13 0 -19 43 -9 61 5 10 9 37 9 61 0 36 -6 50 -30 73 -31 30 -40 65 -17 65 8
0 21 -8 30 -18z m-36 -228 c2 -6 -8 -16 -22 -24 -14 -7 -25 -18 -25 -24 0 -21
-20 19 -20 40 0 18 5 21 32 20 17 -1 33 -6 35 -12z m20 -95 c-5 -40 -13 -57
-21 -48 -9 8 7 89 17 89 6 0 7 -17 4 -41z m198 -91 c5 -38 2 -64 -10 -92 -21
-51 -12 -89 31 -124 24 -20 37 -40 41 -65 l6 -37 -46 0 c-66 0 -83 20 -106
119 -17 74 -18 89 -6 128 14 46 61 123 76 123 4 0 10 -24 14 -52z" />
    <path
      d="M2021 3167 c-14 -16 -23 -42 -27 -78 -4 -40 -3 -50 5 -39 6 8 11 29
11 46 0 17 10 44 21 59 18 21 28 26 55 23 18 -2 30 0 28 4 -11 18 -71 8 -93
-15z" />
    <path
      d="M2100 2882 c-42 -21 -80 -75 -79 -111 1 -21 2 -22 6 -6 18 76 62 115
127 115 42 0 49 -10 48 -64 0 -39 0 -40 10 -13 14 38 3 71 -27 85 -34 16 -44
15 -85 -6z" />
    <path
      d="M2149 2459 c-14 -14 -19 -30 -17 -57 3 -31 9 -40 38 -54 50 -24 60
-35 60 -66 1 -23 2 -25 11 -9 15 26 2 53 -34 68 -70 27 -87 72 -45 116 27 28
16 31 -13 2z" />
    <path d="M2336 2053 c-6 -14 -5 -15 5 -6 7 7 10 15 7 18 -3 3 -9 -2 -12 -12z" />
    <path
      d="M2302 1993 c-28 -56 -45 -138 -37 -181 7 -43 43 -122 55 -122 4 0 -2
19 -13 42 -32 65 -34 141 -4 226 14 40 23 72 21 72 -2 0 -12 -17 -22 -37z" />
    <path
      d="M2536 1919 c-17 -14 -26 -29 -25 -47 2 -24 2 -24 6 -5 2 13 14 30 26
38 59 41 144 -5 157 -86 7 -39 8 -40 9 -11 3 96 -104 165 -173 111z" />
    <path d="M2335 1670 c3 -5 8 -10 11 -10 2 0 4 5 4 10 0 6 -5 10 -11 10 -5 0
-7 -4 -4 -10z" />
    <path d="M2831 2974 c0 -11 3 -14 6 -6 3 7 2 16 -1 19 -3 4 -6 -2 -5 -13z" />
    <path d="M2821 2934 c0 -11 3 -14 6 -6 3 7 2 16 -1 19 -3 4 -6 -2 -5 -13z" />
    <path
      d="M2802 2870 c-5 -25 -28 -117 -51 -205 -81 -321 -119 -491 -103 -465
9 14 86 315 132 515 11 50 25 109 31 132 6 23 9 47 7 55 -3 7 -10 -7 -16 -32z" />
    <path
      d="M1417 2820 c-29 -85 -47 -202 -46 -302 0 -61 2 -70 12 -53 7 11 31
39 55 63 35 35 49 42 81 42 25 0 44 -7 56 -20 17 -18 17 -21 -2 -51 -11 -19
-38 -43 -66 -56 -96 -48 -126 -138 -87 -265 l23 -73 12 61 c15 70 33 107 70
147 91 96 233 87 309 -20 23 -34 29 -52 29 -97 0 -80 -38 -131 -117 -157 -34
-11 -42 -11 -75 7 -29 15 -36 25 -36 48 0 46 27 55 78 28 54 -29 71 -28 96 4
25 31 28 92 7 132 -35 67 -115 104 -181 82 -151 -50 -194 -248 -79 -364 47
-46 83 -60 155 -61 70 0 99 10 162 59 104 79 145 242 93 368 -39 96 -113 164
-241 222 -191 88 -252 135 -284 221 -12 30 -21 44 -24 35z" />
    <path
      d="M3536 2787 c-28 -75 -94 -130 -240 -203 -140 -70 -184 -99 -229 -148
-136 -149 -92 -394 88 -497 60 -34 165 -33 222 4 115 73 145 221 67 325 -50
65 -160 93 -223 56 -40 -24 -73 -78 -75 -122 -2 -77 62 -126 108 -83 34 32 75
27 89 -12 10 -26 -7 -52 -44 -67 -54 -23 -143 20 -173 84 -43 92 1 197 103
241 121 53 271 -50 296 -203 8 -52 14 -49 37 26 22 70 23 112 3 159 -17 41
-75 98 -108 109 -35 10 -57 35 -57 64 0 79 109 62 170 -27 12 -18 27 -33 33
-33 21 0 -15 309 -42 358 -5 9 -13 0 -25 -31z" />
    <path
      d="M1185 2163 c-57 -12 -91 -29 -126 -60 -40 -36 -51 -60 -23 -49 23 9
62 -3 69 -22 8 -22 -21 -42 -59 -42 -42 0 -92 -33 -119 -78 -27 -45 -68 -144
-62 -150 2 -2 16 5 32 16 71 50 205 92 253 79 14 -4 20 -1 17 6 -29 79 -30 83
-16 112 18 37 40 49 72 41 24 -6 27 -11 27 -51 0 -101 99 -115 130 -19 24 70
-9 162 -70 197 -28 16 -94 27 -125 20z" />
    <path
      d="M3681 2148 c-68 -35 -86 -66 -86 -150 0 -64 2 -72 28 -94 49 -42 97
-22 97 39 0 67 49 98 91 56 16 -16 20 -30 17 -62 -3 -23 -8 -50 -12 -59 -7
-15 -3 -18 26 -18 57 0 150 -29 212 -66 61 -36 74 -38 57 -7 -6 10 -21 43 -35
73 -33 73 -78 118 -124 125 -54 9 -82 23 -82 39 0 19 31 36 66 36 l27 0 -24
26 c-71 76 -181 103 -258 62z" />
    <path
      d="M957 2094 c-51 -28 -121 -44 -189 -44 l-67 0 24 -46 c43 -82 29 -162
-41 -228 -50 -47 -113 -58 -164 -29 -29 17 -35 27 -35 54 0 32 2 34 36 37 23
2 40 -2 49 -12 8 -10 29 -16 56 -16 57 0 84 35 84 109 0 46 -4 55 -39 90 -119
119 -325 -1 -324 -190 2 -125 108 -230 233 -229 119 2 242 120 226 218 -19
123 -20 119 3 131 19 11 23 8 39 -18 9 -17 19 -31 22 -31 3 0 17 26 33 58 15
31 45 81 67 110 41 53 37 63 -13 36z" />
    <path
      d="M4002 2069 c20 -24 53 -78 74 -119 l38 -75 8 33 c7 25 14 32 33 32
32 0 39 -26 26 -96 -18 -96 17 -170 107 -226 50 -31 160 -32 217 -1 84 44 120
108 120 213 0 67 -3 80 -30 120 -17 24 -49 58 -73 74 -35 25 -53 30 -101 31
-72 0 -106 -17 -137 -71 -35 -60 -31 -97 19 -151 24 -27 73 -30 103 -8 49 37
106 3 83 -49 -24 -52 -117 -60 -179 -15 -75 56 -104 170 -60 241 11 18 20 36
20 41 0 4 -33 7 -72 7 -56 0 -87 7 -133 26 -101 43 -103 43 -63 -7z" />
    <path
      d="M3484 1884 c-210 -342 -588 -554 -984 -554 -258 0 -501 77 -701 222
-133 96 -255 229 -324 353 -20 36 -40 65 -45 65 -4 0 -10 -13 -13 -30 -4 -16
-25 -48 -48 -71 -22 -22 -39 -42 -37 -44 2 -1 23 -12 47 -25 24 -12 100 -79
175 -154 194 -194 340 -284 596 -364 84 -26 210 -42 334 -42 214 0 391 41 571
133 153 78 236 140 379 282 72 72 145 137 161 145 55 26 57 30 23 58 -17 14
-41 48 -53 74 l-22 47 -59 -95z" />
    <path
      d="M1520 1946 c0 -4 14 -28 32 -54 119 -176 290 -321 468 -398 86 -37
134 -42 64 -6 -23 12 -66 44 -97 72 -94 86 -110 172 -45 245 l30 35 -43 40
c-24 21 -49 39 -55 40 -6 0 -33 -9 -59 -21 -79 -35 -196 -19 -272 37 -13 9
-23 13 -23 10z" />
    <path
      d="M3407 1918 c-16 -12 -54 -27 -85 -34 -46 -11 -65 -11 -115 1 -33 8
-65 19 -70 24 -20 20 -44 11 -90 -31 l-46 -41 25 -19 c30 -24 54 -69 54 -101
0 -38 -48 -123 -93 -162 -23 -21 -66 -51 -95 -67 -29 -17 -51 -33 -48 -35 9
-10 103 28 181 72 158 91 290 209 383 345 23 33 42 63 42 65 0 10 -16 4 -43
-17z" />
    <path
      d="M1026 1804 c-117 -37 -226 -149 -271 -276 -20 -57 -20 -209 0 -266
50 -142 286 -381 540 -548 374 -245 743 -357 1180 -358 304 -1 495 34 815 149
62 23 269 128 349 178 182 113 451 355 528 475 86 133 99 285 36 419 -35 76
-130 171 -208 209 -56 27 -68 29 -175 29 -107 -1 -119 -3 -181 -32 -51 -23
-85 -50 -140 -108 -178 -187 -264 -254 -435 -339 -201 -99 -341 -131 -574
-131 -177 0 -265 13 -408 61 -93 32 -272 114 -272 125 0 5 -5 9 -11 9 -26 0
-155 106 -269 222 -107 108 -137 132 -195 159 -60 27 -84 32 -165 35 -67 3
-109 -1 -144 -12z m457 -504 c31 -33 37 -48 37 -84 0 -36 -6 -50 -40 -89 -51
-58 -96 -75 -140 -52 -37 19 -110 83 -110 97 0 5 10 6 21 3 18 -6 34 6 90 66
45 47 69 81 69 96 0 20 3 22 18 14 10 -6 35 -28 55 -51z m2098 1 c17 -13 23
-28 22 -54 -1 -34 0 -35 56 -51 32 -9 65 -16 74 -16 9 0 17 -3 17 -7 0 -10
-153 -153 -164 -153 -4 0 -6 7 -3 15 4 9 -21 43 -65 90 -53 56 -77 75 -97 75
-25 0 -25 1 19 43 52 50 90 77 106 77 7 0 22 -8 35 -19z m-1895 -171 c49 -35
55 -47 22 -52 -28 -4 -131 -154 -124 -180 6 -25 -10 -22 -55 10 -44 31 -48 39
-17 44 31 5 131 153 123 185 -7 30 -3 29 51 -7z m1677 -43 c-3 -4 -13 -1 -24
9 -17 15 -20 16 -44 0 -30 -20 -31 -29 -4 -66 26 -34 49 -29 49 12 0 35 8 31
45 -22 28 -40 29 -64 1 -41 -15 12 -56 7 -56 -8 0 -4 12 -21 28 -39 26 -32 28
-32 50 -16 18 12 22 22 18 40 -4 13 -2 24 2 24 16 0 45 -39 39 -52 -4 -12
-138 -98 -152 -98 -3 0 -3 10 0 23 8 31 -91 181 -122 185 -13 2 -23 6 -23 10
0 4 35 28 78 54 l77 47 22 -26 c12 -15 19 -31 16 -36z m-1481 -88 c-18 -7 -22
-16 -22 -49 0 -46 8 -49 39 -16 16 17 21 31 16 45 -7 24 -3 25 42 9 40 -15 41
-21 4 -45 -86 -55 -137 -129 -125 -180 l7 -25 -51 26 -50 26 28 30 c35 38 44
79 38 170 l-5 69 51 -26 c47 -24 49 -26 28 -34z m1221 -11 c-2 -13 0 -72 5
-133 14 -157 7 -160 -92 -35 -43 54 -84 101 -92 104 -25 10 -15 21 37 39 54
20 70 17 49 -8 -10 -13 -8 -22 15 -55 45 -65 55 -69 55 -22 0 52 -15 92 -35
92 -22 0 -18 15 8 28 38 18 55 15 50 -10z m-270 -105 c7 -36 2 -40 -22 -19
-11 10 -30 16 -43 14 -20 -3 -23 -8 -21 -47 1 -24 4 -45 7 -48 10 -10 46 19
46 37 0 11 4 20 9 20 9 0 21 -56 21 -100 l0 -24 -16 22 c-17 24 -54 30 -54 8
0 -7 3 -28 6 -45 5 -24 12 -31 30 -31 23 0 54 23 54 41 0 5 5 9 10 9 6 0 10
-16 10 -35 0 -32 -3 -34 -37 -40 -21 -3 -60 -10 -88 -14 -27 -5 -51 -8 -53 -6
-2 2 2 12 9 23 10 15 10 32 1 77 -7 32 -12 71 -12 87 0 18 -10 38 -26 53 l-25
24 48 6 c26 3 55 8 63 9 8 2 29 4 46 5 27 1 32 -3 37 -26z m-476 -74 c-4 -64
-2 -81 9 -86 20 -7 17 -20 -6 -26 -24 -6 -26 -34 -3 -59 9 -10 14 -20 12 -22
-2 -2 -31 1 -63 6 -51 9 -57 12 -43 23 9 7 18 23 19 36 3 20 -3 25 -40 33 -23
5 -41 13 -40 17 6 17 140 159 150 159 7 0 9 -27 5 -81z" />
    <path
      d="M1389 1204 c-35 -36 -64 -71 -64 -77 0 -7 12 -13 27 -15 31 -4 85 39
113 91 17 33 16 67 -4 67 -5 0 -37 -30 -72 -66z" />
    <path
      d="M3503 1263 c-7 -2 -13 -10 -13 -17 0 -15 42 -56 57 -56 21 0 22 29 2
54 -21 27 -25 28 -46 19z" />
    <path d="M3602 1123 c31 -31 39 -35 52 -24 23 19 20 25 -19 44 -61 29 -74 21
-33 -20z" />
    <path d="M2267 765 c-17 -23 -17 -26 -2 -32 19 -7 35 12 35 40 0 24 -12 21
-33 -8z" />
    <path
      d="M380 1625 c0 -15 111 -233 158 -308 331 -537 860 -912 1467 -1041
419 -88 814 -66 1222 70 549 182 1033 604 1300 1131 35 69 63 132 63 139 0 9
-18 2 -52 -19 -47 -30 -58 -32 -137 -32 -62 0 -95 5 -120 18 -40 20 -58 22
-43 5 20 -25 42 -123 42 -186 0 -83 -32 -186 -80 -261 -21 -32 -82 -104 -137
-159 -531 -539 -1284 -772 -2008 -622 -184 39 -224 50 -363 106 -296 118 -532
272 -753 493 -196 196 -234 269 -233 446 0 90 4 118 22 158 12 26 19 47 17 47
-2 0 -25 -11 -51 -25 -62 -33 -163 -35 -229 -4 -24 11 -49 27 -56 35 -11 14
-29 19 -29 9z" />
  </g>
</svg>